<svg xmlns="http://www.w3.org/2000/svg" viewBox="0 0 200 200">
    <!-- Background circle -->
    <circle cx="100" cy="100" r="90" fill="#ffffff"/>
    
    <!-- Dollar coin base -->
    <circle cx="100" cy="100" r="60" fill="#4850a1"/>
    <circle cx="100" cy="100" r="55" fill="#f29d1e"/>
    
    <!-- Dollar sign -->
    <path d="M110 70 C110 70 100 70 95 70 C85 70 80 75 80 82 C80 89 85 93 100 95 C115 97 120 101 120 108 C120 115 115 120 105 120 C95 120 90 120 90 120"
          fill="none"
          stroke="#4850a1"
          stroke-width="8"
          stroke-linecap="round"/>
    <line x1="100" y1="65" x2="100" y2="125" 
          stroke="#4850a1" 
          stroke-width="8"
          stroke-linecap="round"/>
          
    <!-- Downward arrow -->
    <path d="M160 90 L160 110 L140 110"
          fill="none"
          stroke="#4850a1"
          stroke-width="8"
          stroke-linecap="round"
          stroke-linejoin="round"/>
          
    <!-- Savings stars/sparkles -->
    <path d="M40 90 L45 95 L40 100 L45 105 L40 110" 
          fill="none" 
          stroke="#f29d1e" 
          stroke-width="4" 
          stroke-linecap="round"/>
    <path d="M170 130 L175 135 L170 140 L175 145 L170 150" 
          fill="none" 
          stroke="#f29d1e" 
          stroke-width="4" 
          stroke-linecap="round"/>
    
    <!-- Small decorative circles -->
    <circle cx="45" cy="145" r="4" fill="#f29d1e"/>
    <circle cx="155" cy="55" r="4" fill="#f29d1e"/>
    <circle cx="60" cy="45" r="4" fill="#f29d1e"/>
  </svg>